<?xml version="1.0" standalone="no"?>
<!DOCTYPE svg PUBLIC "-//W3C//DTD SVG 20010904//EN"
 "http://www.w3.org/TR/2001/REC-SVG-20010904/DTD/svg10.dtd">
<svg version="1.0" xmlns="http://www.w3.org/2000/svg"
 width="920.000000pt" height="824.000000pt" viewBox="0 0 920.000000 824.000000"
 preserveAspectRatio="xMidYMid meet">

<g transform="translate(0.000000,824.000000) scale(0.100000,-0.100000)"
fill="#000000" stroke="none">
<path d="M1048 8028 c-97 -173 -138 -356 -138 -618 1 -206 42 -488 95 -644 18
-52 9 -79 -16 -49 -32 38 -99 164 -158 294 -107 241 -139 462 -105 728 7 52 7
53 -14 40 -12 -8 -30 -34 -41 -59 -82 -194 -41 -554 98 -852 23 -49 59 -126
81 -173 21 -47 40 -93 42 -102 16 -90 -194 154 -264 307 -63 138 -109 261
-138 369 -15 58 -29 43 -40 -43 -10 -84 2 -181 36 -282 32 -96 139 -313 214
-434 68 -111 91 -154 88 -168 -7 -35 -255 231 -339 363 -25 40 -44 78 -73 148
-8 20 -19 37 -24 37 -15 0 -24 -85 -17 -158 16 -164 57 -254 226 -504 53 -77
68 -108 54 -108 -6 0 -87 49 -204 123 -113 73 -137 81 -125 45 20 -67 134
-238 174 -263 5 -3 10 -13 10 -22 0 -14 -10 -15 -65 -10 -70 7 -95 2 -95 -17
0 -32 137 -158 272 -252 32 -21 58 -42 58 -46 0 -3 -49 -8 -108 -10 -129 -4
-150 -13 -126 -59 19 -38 80 -76 172 -108 41 -14 73 -30 73 -36 0 -5 -23 -15
-52 -22 -71 -16 -129 -44 -129 -64 0 -8 12 -27 28 -41 39 -36 181 -128 198
-128 20 0 17 -27 -3 -38 -10 -6 -37 -13 -61 -17 -53 -9 -64 -30 -31 -56 35
-28 133 -75 221 -106 43 -16 78 -32 78 -38 1 -5 -38 -17 -85 -26 -48 -9 -91
-21 -97 -27 -23 -23 148 -98 250 -109 77 -9 65 -30 -35 -62 -80 -26 -133 -55
-140 -78 -6 -17 25 -42 65 -52 47 -13 216 -31 282 -31 27 0 50 -5 50 -10 0
-12 -23 -22 -105 -46 -80 -23 -172 -69 -185 -93 -7 -15 -6 -23 5 -35 25 -24
79 -29 219 -22 72 4 146 8 165 9 19 1 35 -2 37 -8 2 -5 -35 -37 -81 -69 -53
-37 -96 -76 -115 -104 -32 -48 -39 -89 -16 -98 17 -6 107 19 201 56 173 69
231 90 243 90 33 0 1 -35 -117 -128 -154 -121 -229 -214 -201 -248 13 -15 46
-6 174 45 43 18 82 28 87 24 4 -4 -19 -41 -52 -81 -142 -175 -124 -214 58
-122 135 69 151 66 88 -16 -52 -67 -112 -174 -120 -211 -6 -32 -6 -33 27 -33
40 0 138 45 192 89 62 50 65 25 8 -81 -72 -135 -86 -197 -45 -212 21 -9 92 35
146 89 42 42 67 56 67 38 0 -5 -13 -42 -30 -83 -33 -85 -39 -147 -14 -157 40
-15 120 55 177 157 34 62 52 65 43 9 -39 -267 -47 -388 -40 -604 11 -314 10
-347 -10 -377 -25 -39 -60 -58 -116 -65 -43 -5 -51 -3 -74 20 -29 29 -33 63
-13 92 11 15 22 17 55 11 31 -5 42 -3 42 7 0 37 -62 50 -99 20 -30 -24 -38
-85 -17 -118 25 -39 89 -67 134 -59 48 9 90 30 124 62 l28 26 24 -23 c17 -16
30 -20 49 -16 22 6 29 2 47 -27 30 -49 24 -21 -16 84 -77 199 -111 334 -126
506 -11 118 -10 134 4 148 9 9 20 14 26 10 5 -3 12 -52 15 -108 7 -125 47
-287 118 -472 170 -444 209 -582 209 -730 -1 -146 -25 -193 -123 -236 -49 -22
-61 -40 -27 -40 34 0 94 36 132 78 52 57 73 127 73 242 0 82 -4 105 -29 167
l-29 73 19 42 c22 49 25 189 5 226 -19 35 1 27 97 -37 107 -72 148 -93 170
-89 10 2 -10 18 -53 41 -246 130 -440 410 -494 711 -26 141 -5 496 40 704 12
53 23 108 26 122 3 14 10 31 16 38 10 13 43 16 50 5 3 -5 -6 -50 -19 -102
-120 -474 -85 -871 99 -1140 51 -76 187 -203 265 -250 141 -84 310 -121 420
-91 61 17 142 61 158 86 13 18 10 19 -57 19 -67 0 -72 2 -100 33 -16 18 -29
41 -29 51 0 10 -7 24 -15 31 -22 18 -19 34 12 64 35 36 122 60 181 51 115 -17
181 -180 110 -270 -21 -27 -90 -77 -147 -107 -25 -14 -29 -17 -11 -13 14 4 35
9 47 12 17 4 35 -7 75 -47 103 -103 492 -414 651 -520 45 -30 46 -42 8 -69
-62 -44 -232 -137 -296 -161 -15 -6 -25 -13 -22 -16 3 -3 44 -19 92 -36 48
-16 111 -43 141 -60 l55 -30 52 35 c29 19 84 65 124 101 39 36 79 66 88 66 9
0 31 -11 49 -25 18 -14 38 -25 43 -25 6 0 16 -6 22 -14 15 -17 -4 -59 -39 -91
-12 -11 -30 -36 -40 -55 -10 -19 -36 -56 -59 -82 -23 -25 -41 -49 -41 -53 0
-3 21 -28 48 -55 26 -26 70 -80 97 -119 28 -38 55 -69 60 -68 15 4 105 186
115 232 16 75 37 146 47 156 14 14 101 -29 108 -52 10 -29 -49 -284 -75 -331
-6 -10 -10 -22 -10 -28 0 -5 -13 -38 -30 -72 -16 -34 -30 -68 -30 -76 0 -8 13
-36 28 -61 62 -103 144 -308 173 -431 7 -30 16 -58 19 -63 3 -4 19 34 34 85
39 132 99 282 151 379 25 45 45 90 45 98 0 9 -8 30 -18 46 -47 76 -138 400
-130 457 3 24 81 73 103 64 6 -2 20 -35 30 -73 23 -88 81 -247 108 -296 25
-44 41 -47 61 -9 21 39 127 169 154 187 12 9 22 21 22 26 0 5 -21 37 -47 69
-79 98 -97 122 -120 159 -23 37 -30 71 -14 71 5 0 32 16 60 35 l51 36 73 -69
c79 -74 180 -152 198 -152 6 0 23 8 37 18 15 10 47 26 72 36 25 10 54 22 65
27 11 4 38 13 60 20 59 19 63 27 19 44 -62 24 -107 47 -141 72 -17 13 -37 23
-43 23 -21 0 -139 85 -139 101 -1 9 27 36 62 60 75 52 350 259 357 268 3 4 32
29 65 56 62 51 154 132 217 191 33 31 39 33 65 23 99 -39 154 -54 198 -54 83
1 205 17 205 27 0 6 -17 7 -42 2 -112 -19 -266 -6 -338 29 -72 36 -131 88
-152 134 -37 84 -3 177 82 221 37 19 55 22 98 18 62 -7 127 -37 142 -67 9 -17
7 -31 -13 -72 -37 -79 -57 -92 -137 -92 -61 0 -67 -2 -59 -17 12 -23 81 -62
148 -83 115 -37 305 1 441 89 174 113 309 284 369 470 43 132 55 221 55 401
-1 181 -10 259 -55 463 -25 110 -29 146 -20 155 34 34 61 -37 102 -273 18
-104 22 -165 23 -370 1 -240 0 -247 -27 -333 -54 -173 -128 -304 -241 -425
-81 -86 -154 -141 -262 -196 -49 -25 -86 -46 -82 -46 18 0 142 52 168 70 15
11 32 20 37 20 4 0 26 16 48 35 61 53 100 60 74 13 -20 -36 -18 -178 3 -211
24 -36 23 -54 -9 -123 -25 -53 -27 -70 -27 -164 1 -125 23 -194 81 -253 37
-39 90 -67 124 -67 35 0 19 19 -38 47 -96 47 -122 113 -110 287 5 77 47 245
87 346 9 25 25 70 35 100 10 30 26 73 36 95 33 73 81 199 95 250 55 192 65
247 71 363 5 110 8 122 24 122 27 0 33 -37 25 -164 -9 -156 -51 -327 -127
-519 -45 -112 -46 -118 -19 -89 13 13 33 22 51 22 20 0 37 8 48 22 l18 21 40
-32 c22 -18 62 -39 89 -47 44 -13 53 -13 97 3 54 19 77 51 77 103 0 58 -81
105 -118 68 -26 -26 -14 -38 31 -32 52 7 70 -9 65 -58 -2 -23 -12 -38 -35 -54
-28 -19 -39 -21 -75 -12 -52 11 -83 30 -100 60 -10 18 -13 124 -13 468 0 245
-4 471 -9 503 -5 33 -5 57 0 57 5 0 33 -38 61 -84 41 -64 62 -88 96 -106 52
-28 77 -22 77 17 0 28 -21 100 -46 161 -25 58 -11 71 29 26 62 -71 148 -122
177 -104 29 18 -5 133 -70 239 -50 81 -35 93 45 35 88 -63 182 -93 201 -63 9
14 -60 148 -113 221 -43 58 -51 78 -34 78 6 0 56 -23 112 -50 110 -54 149 -62
149 -32 0 22 -67 128 -116 186 -40 47 -29 63 25 39 20 -8 59 -24 86 -34 28
-11 58 -24 67 -29 26 -15 58 -12 64 5 15 39 -92 161 -243 274 -91 69 -100 78
-85 93 9 9 61 -8 242 -79 175 -69 206 -76 216 -48 8 20 -12 75 -39 105 -22 26
-119 101 -171 134 -47 30 -20 40 75 27 166 -22 329 -10 343 25 7 17 -28 53
-71 73 -15 7 -35 17 -45 22 -9 4 -44 15 -79 24 -111 29 -134 55 -49 55 82 0
240 20 289 37 52 17 64 30 51 54 -11 20 -98 63 -160 79 -75 20 -91 50 -26 50
44 0 127 26 204 62 89 43 84 54 -40 78 -43 8 -78 20 -78 25 0 6 34 22 74 37
166 59 271 126 236 149 -8 5 -32 12 -53 15 -21 4 -48 15 -60 24 -21 17 -21 18
33 44 71 34 194 126 198 149 4 21 -80 63 -146 73 -25 4 -41 11 -39 18 2 6 36
23 75 37 98 36 159 77 183 122 16 28 -43 47 -151 47 -49 0 -90 4 -90 8 0 5 32
31 72 58 40 27 112 87 160 133 117 110 117 143 3 124 -79 -14 -88 2 -35 57 94
97 181 260 140 260 -6 0 -78 -43 -161 -96 -161 -103 -195 -111 -136 -33 36 47
117 170 150 229 83 146 108 230 110 367 2 112 -11 137 -39 71 -61 -140 -146
-257 -298 -408 -158 -157 -161 -148 -26 77 131 219 197 362 235 513 19 74 18
251 -3 272 -9 9 -12 8 -16 -3 -2 -8 -12 -41 -21 -74 -10 -33 -36 -107 -58
-165 -37 -96 -53 -129 -123 -256 -51 -95 -182 -243 -203 -230 -14 9 -8 26 57
166 17 36 49 105 71 153 67 146 92 235 116 412 19 138 19 214 1 307 -18 90
-31 126 -58 156 -24 24 -40 29 -33 10 2 -7 9 -63 15 -124 16 -172 -10 -370
-71 -539 -34 -92 -165 -357 -192 -386 -24 -26 -41 -24 -32 4 140 463 138 948
-5 1237 -33 65 -65 108 -75 98 -4 -4 5 -67 20 -140 15 -73 32 -160 37 -193 11
-67 3 -277 -13 -370 -46 -264 -79 -401 -134 -555 -14 -41 -29 -85 -32 -97 -3
-13 -12 -23 -19 -23 -18 0 -18 -3 10 115 81 341 91 575 34 840 -23 111 -86
276 -110 291 -10 6 -9 1 13 -171 7 -49 12 -187 13 -305 1 -243 -7 -299 -75
-503 -65 -197 -155 -370 -327 -631 -111 -168 -131 -186 -205 -186 -114 0 -316
-100 -460 -227 -75 -67 -173 -184 -246 -296 -36 -53 -68 -97 -73 -97 -12 0
-18 37 -21 138 l-2 94 -51 26 c-55 29 -247 121 -359 172 -63 28 -68 33 -52 45
48 35 223 26 311 -16 78 -37 68 -13 -22 53 -41 30 -51 43 -42 52 5 8 8 20 5
27 -8 22 7 34 65 53 80 26 164 89 205 155 19 30 35 65 35 77 0 26 18 42 105
88 80 43 120 78 177 154 93 125 115 234 67 329 -17 32 -32 49 -47 51 -28 4
-28 -9 3 -54 32 -47 41 -98 25 -143 -21 -58 -85 -144 -152 -205 -91 -83 -328
-237 -533 -346 -98 -52 -194 -107 -302 -173 -79 -47 -113 -55 -113 -24 0 7 12
25 28 38 42 39 234 155 367 222 61 30 174 118 228 176 96 103 122 214 73 316
-40 85 -135 154 -212 155 -73 0 -171 -61 -209 -132 -36 -66 -31 -130 17 -199
38 -57 74 -79 125 -79 51 0 60 8 92 72 31 61 27 98 -9 98 -17 0 -19 -3 -10
-19 26 -50 -3 -91 -66 -91 -76 0 -134 61 -134 140 0 39 13 65 54 108 40 43 88
63 151 64 71 1 123 -27 163 -86 28 -42 32 -56 32 -115 0 -91 -32 -154 -130
-252 -83 -83 -188 -159 -219 -159 -11 0 -25 10 -32 21 -9 17 -18 20 -42 16
-47 -7 -57 1 -57 39 0 72 -63 153 -137 175 -37 11 -48 10 -84 -6 -74 -34 -102
-107 -58 -154 15 -16 30 -21 52 -19 42 4 42 29 -1 40 -42 11 -50 32 -27 74 20
37 63 59 99 50 34 -8 94 -79 101 -120 11 -55 -23 -111 -143 -235 -113 -117
-126 -124 -187 -101 -15 6 -61 19 -103 31 -43 11 -117 32 -167 46 -117 33
-252 59 -395 78 -63 8 -149 20 -190 26 -106 16 -629 6 -735 -14 -44 -8 -114
-20 -155 -27 -102 -16 -497 -114 -582 -145 -38 -14 -79 -25 -92 -25 -24 0
-226 195 -271 262 -44 66 -30 147 35 202 43 36 80 34 119 -6 45 -47 38 -98
-14 -98 -27 0 -35 -8 -28 -26 8 -22 67 -17 89 7 24 27 25 91 1 117 -10 11 -39
28 -64 37 -49 19 -86 13 -141 -21 -35 -23 -73 -88 -80 -141 l-7 -48 -39 3
c-29 3 -41 -1 -53 -17 -8 -12 -22 -21 -32 -21 -56 0 -253 174 -310 272 -105
185 12 375 208 335 45 -9 64 -19 102 -57 71 -71 72 -159 2 -220 -60 -53 -163
-36 -163 26 0 11 5 25 12 32 8 8 9 15 1 23 -7 7 -15 5 -27 -6 -20 -20 -21 -64
-2 -71 8 -3 17 -21 20 -40 9 -43 36 -58 94 -51 58 6 91 32 125 98 25 47 28 62
24 113 -7 75 -41 119 -128 164 -51 27 -72 33 -104 29 -122 -13 -222 -119 -233
-245 -9 -106 87 -242 243 -344 74 -48 218 -134 263 -156 57 -29 149 -87 206
-130 54 -42 57 -46 40 -59 -23 -17 -43 -10 -127 46 -38 25 -95 60 -126 76 -31
17 -99 54 -153 83 -98 53 -308 179 -431 259 -129 84 -246 205 -283 292 -22 52
-17 107 13 162 27 50 25 71 -5 53 -29 -18 -62 -94 -62 -146 0 -138 120 -303
286 -394 77 -42 82 -47 93 -87 22 -89 131 -190 243 -227 44 -14 53 -21 53 -41
0 -13 3 -29 7 -34 9 -15 -1 -27 -42 -52 -39 -24 -86 -70 -79 -78 3 -2 25 6 50
19 62 33 138 47 222 40 157 -12 186 -35 95 -74 -93 -39 -287 -137 -338 -170
l-49 -32 -3 -91 c-2 -62 -7 -92 -15 -92 -6 0 -31 29 -54 65 -43 66 -135 185
-162 211 -154 149 -196 180 -316 239 -91 45 -125 56 -210 69 -35 6 -72 18 -82
27 -10 9 -65 86 -122 172 -189 283 -308 534 -357 752 -7 30 -17 71 -22 90 -20
72 -21 352 -3 550 9 105 15 193 13 195 -4 4 -46 -76 -67 -128 -20 -50 -53
-191 -67 -287 -29 -204 -8 -454 62 -717 13 -50 24 -96 24 -102 0 -18 -29 0
-35 22 -4 12 -10 31 -15 42 -33 75 -93 290 -119 425 -58 300 -65 507 -23 680
26 109 38 210 24 210 -5 0 -21 -19 -34 -42z m3932 -1843 c248 -28 321 -41 590
-107 166 -40 495 -152 628 -214 29 -13 55 -24 57 -24 5 0 250 -115 275 -129
23 -13 27 -406 4 -487 -9 -33 -18 -69 -21 -81 -3 -12 -13 -29 -22 -37 -16 -14
-17 1 -13 253 3 188 1 274 -7 289 -11 20 -36 34 -202 110 -248 115 -705 264
-924 302 -27 5 -88 16 -135 25 -190 34 -347 48 -565 48 -395 1 -774 -64 -1210
-208 -151 -50 -377 -141 -520 -211 l-100 -49 -3 -257 c-2 -254 -3 -258 -22
-246 -11 7 -20 22 -20 34 0 12 -7 38 -15 58 -12 29 -15 76 -13 244 l3 207 130
65 c72 36 155 76 185 89 169 73 472 175 660 221 69 17 141 35 160 40 57 14
286 51 405 65 154 17 541 18 695 0z m-3008 -99 c47 -13 121 -43 164 -67 219
-124 487 -475 612 -799 32 -86 51 -162 84 -350 20 -115 17 -406 -5 -508 -37
-168 -109 -327 -183 -403 -123 -126 -355 -169 -505 -94 -124 64 -167 206 -84
283 31 29 41 32 97 32 75 0 122 -24 142 -72 14 -33 6 -100 -13 -106 -6 -2 -11
-12 -11 -22 0 -14 10 -20 44 -25 24 -4 59 -4 78 0 66 14 158 67 199 114 145
164 223 553 159 791 -81 295 -208 449 -421 505 -30 8 -80 15 -111 15 -65 0
-72 10 -31 45 64 56 196 58 291 4 30 -17 56 -28 59 -25 7 6 -43 86 -113 182
-104 141 -263 261 -399 300 -68 20 -236 30 -261 16 -11 -6 12 -9 68 -9 157 0
282 -48 410 -157 109 -93 238 -256 202 -256 -27 0 -83 43 -129 100 -151 184
-292 263 -475 264 -47 1 -106 -3 -132 -7 -57 -10 -63 3 -13 27 42 20 45 29 8
20 -55 -14 -119 -58 -139 -95 -18 -37 -19 -109 0 -109 7 0 16 13 19 30 9 42
58 70 125 70 97 0 159 -57 168 -152 7 -69 -16 -113 -81 -153 -43 -27 -56 -30
-134 -30 -100 0 -135 13 -211 82 -164 147 -130 403 68 520 114 67 295 83 454
39z m5723 0 c73 -25 105 -43 157 -94 102 -98 133 -247 75 -364 -37 -75 -123
-153 -191 -173 -172 -51 -340 50 -311 188 18 85 81 137 164 137 75 0 108 -20
134 -81 l15 -34 11 30 c10 24 9 37 -4 72 -34 88 -154 143 -312 143 -193 0
-386 -110 -543 -310 -62 -77 -142 -201 -136 -207 2 -2 26 10 53 27 94 59 229
63 304 9 50 -35 38 -46 -54 -51 -73 -4 -95 -10 -176 -48 -73 -35 -104 -57
-149 -105 -56 -59 -118 -170 -156 -275 -64 -184 -63 -382 4 -629 63 -227 204
-366 372 -366 76 0 107 16 74 40 -27 20 -34 97 -12 131 23 34 73 54 137 54 61
0 103 -22 124 -66 41 -87 -10 -194 -119 -252 -47 -25 -60 -27 -171 -27 l-120
0 -88 44 c-60 30 -100 57 -128 90 -59 66 -134 228 -165 358 -24 96 -27 127
-27 288 0 205 15 318 72 530 31 114 140 332 230 460 75 107 216 270 283 326
96 82 196 133 319 164 74 19 268 14 334 -9z m-2821 -76 c14 -5 44 -10 68 -11
242 -10 783 -141 1033 -250 11 -4 43 -17 70 -28 115 -44 279 -121 287 -134 4
-8 7 -325 7 -703 -1 -379 -1 -702 -1 -719 0 -16 1 -192 1 -390 l1 -360 -35
-30 c-19 -16 -35 -33 -35 -37 0 -5 16 -8 35 -8 l35 0 0 -156 0 -156 -39 -78
c-82 -167 -214 -337 -396 -512 -214 -205 -259 -248 -265 -248 -3 0 -24 -17
-46 -38 -80 -74 -330 -257 -593 -435 -47 -32 -92 -64 -101 -72 -8 -7 -28 -17
-45 -21 -16 -4 -36 -16 -43 -26 -7 -10 -23 -18 -36 -18 -12 0 -28 -6 -34 -12
-9 -9 -45 -13 -105 -13 -111 0 -99 -6 -357 167 -193 129 -235 158 -370 261
-408 309 -653 547 -827 802 -54 80 -113 183 -113 199 0 6 -6 18 -12 24 -14 14
-25 263 -14 307 5 20 13 25 36 25 42 0 48 19 14 47 -16 13 -35 28 -42 34 -12
10 -12 144 -3 734 0 6 -2 322 -6 703 -3 381 -2 703 1 716 4 17 25 32 78 56 40
18 100 46 133 61 157 72 473 177 673 224 229 54 388 78 597 90 55 4 102 8 104
11 9 8 321 4 345 -6z m2724 -143 c61 -28 63 -40 6 -30 -92 15 -224 9 -299 -16
-112 -36 -241 -133 -320 -242 -38 -51 -75 -82 -112 -93 -56 -17 -9 52 130 192
95 97 181 156 272 186 113 39 244 40 323 3z m-5491 -188 c75 -28 98 -102 47
-150 -21 -19 -36 -24 -81 -24 -49 0 -58 3 -84 33 -16 18 -29 41 -29 53 0 30
29 69 64 84 39 17 48 17 83 4z m5193 -18 c56 -41 48 -116 -17 -146 -65 -31
-155 3 -161 60 -6 51 6 75 51 96 47 22 88 19 127 -10z m-5335 -240 c3 -6 -12
-17 -32 -26 -145 -62 -193 -103 -193 -165 0 -39 30 -91 68 -116 21 -15 44 -19
100 -17 79 1 92 -10 37 -33 -49 -20 -92 -17 -150 10 -75 35 -98 65 -103 134
-3 51 0 62 28 104 33 50 89 84 170 104 59 15 68 16 75 5z m5446 -5 c69 -17 95
-30 137 -70 47 -43 62 -77 62 -136 0 -46 -4 -54 -42 -93 -42 -42 -99 -67 -150
-67 -31 0 -98 27 -98 39 0 5 33 8 73 8 61 -2 77 2 105 21 64 46 80 121 38 177
-22 28 -53 47 -173 104 -17 8 -30 19 -27 23 6 10 8 10 75 -6z m-5028 -110 c9
-7 17 -26 17 -43 0 -40 -42 -61 -83 -42 -15 7 -27 16 -27 20 0 4 -3 14 -6 22
-7 19 33 57 60 57 12 0 29 -7 39 -14z m4617 -6 c22 -22 24 -33 10 -60 -25 -46
-110 -26 -110 27 0 49 63 70 100 33z m-4472 -74 c199 -210 261 -574 155 -911
-26 -82 -48 -124 -59 -112 -4 3 -2 19 4 34 10 27 21 80 42 197 15 86 12 299
-5 388 -28 149 -89 277 -192 406 -39 49 -46 72 -24 72 5 0 40 -33 79 -74z
m4332 44 c-5 -10 -17 -25 -25 -33 -31 -32 -107 -151 -137 -215 -88 -193 -102
-475 -37 -736 32 -127 5 -114 -39 19 -37 111 -52 211 -52 342 0 257 82 473
230 606 51 46 80 54 60 17z m-4464 -205 c61 -125 78 -215 78 -415 0 -184 -11
-280 -60 -500 -29 -128 -38 -150 -60 -150 -26 0 -26 27 1 137 42 171 65 351
65 513 0 208 -31 353 -106 486 -19 33 -31 64 -26 68 12 12 71 -64 108 -139z
m4576 43 c-22 -46 -51 -123 -64 -173 -20 -80 -23 -113 -23 -290 0 -215 10
-288 67 -526 22 -89 20 -119 -7 -119 -22 0 -32 32 -71 220 -55 268 -64 475
-27 664 16 87 22 102 64 192 28 58 86 130 97 119 3 -3 -13 -42 -36 -87z
m-4446 21 c17 -19 17 -23 3 -47 -10 -19 -24 -28 -47 -30 -37 -4 -57 8 -65 39
-13 49 72 79 109 38z m4353 -11 c14 -24 14 -28 -3 -47 -21 -23 -75 -28 -94 -9
-18 18 -15 65 6 77 30 19 75 9 91 -21z m-4276 -186 c9 -8 17 -20 17 -27 0 -15
-29 -41 -57 -49 -32 -10 -78 33 -68 63 13 41 68 48 108 13z m4197 2 c19 -22 7
-58 -24 -73 -42 -20 -81 2 -81 44 0 48 73 68 105 29z m-4171 -198 c21 -25 9
-69 -20 -80 -60 -21 -107 23 -79 73 13 25 80 30 99 7z m4135 -2 c34 -34 8 -84
-44 -84 -49 0 -80 56 -48 88 17 17 74 15 92 -4z m-4137 -200 c12 -18 11 -24
-8 -47 -24 -31 -63 -35 -91 -10 -23 21 -23 59 0 72 28 17 83 9 99 -15z m4147
10 c49 -49 -34 -114 -86 -67 -36 33 -11 83 42 83 16 0 36 -7 44 -16z m-4184
-184 c42 -42 7 -90 -60 -80 -21 3 -50 30 -50 47 0 22 38 53 65 53 14 0 34 -9
45 -20z m4210 2 c47 -38 -4 -99 -70 -82 -20 4 -26 13 -28 40 -6 56 51 80 98
42z m-306 -148 c9 -3 16 -14 16 -24 0 -9 9 -43 20 -75 25 -73 25 -71 -4 -100
-45 -45 -55 -27 -54 96 1 60 2 109 4 109 1 0 9 -3 18 -6z m-3946 -36 c7 -7 12
-24 12 -38 0 -34 -17 -50 -54 -50 -32 0 -66 25 -66 48 0 42 78 70 108 40z
m4293 2 c23 -13 25 -47 2 -72 -23 -26 -78 -24 -97 4 -20 29 -20 34 4 58 22 22
60 26 91 10z m-4039 -172 c-11 -11 -49 9 -57 30 -3 7 2 26 10 42 8 16 15 35
15 41 0 7 8 21 18 32 16 19 17 16 20 -58 2 -43 -1 -82 -6 -87z m-52 -27 c31
-58 -1 -169 -67 -233 l-33 -32 -31 18 c-30 17 -30 17 -64 -9 -64 -48 -125
-190 -125 -290 0 -53 -9 -64 -50 -62 -33 2 -34 1 -48 -53 -9 -34 -15 -111 -15
-200 -1 -124 2 -157 22 -230 48 -169 126 -314 228 -422 63 -65 185 -148 265
-179 55 -21 147 -93 135 -105 -17 -17 -164 18 -251 60 -136 64 -222 138 -313
269 -158 224 -207 454 -169 782 17 141 47 290 79 394 l22 75 71 22 c129 40
218 96 278 174 34 44 50 50 66 21z m3861 -15 c55 -76 146 -134 289 -181 l65
-22 22 -67 c50 -151 93 -428 93 -596 0 -280 -95 -517 -284 -706 -117 -117
-238 -182 -384 -205 -40 -7 -75 -9 -79 -5 -12 12 80 84 128 101 63 22 215 123
271 181 112 118 204 297 243 478 20 91 16 295 -7 381 -13 49 -14 50 -49 48
l-35 -2 -16 97 c-20 114 -65 211 -120 255 -36 29 -36 29 -67 11 -29 -17 -31
-17 -52 2 -49 44 -81 104 -86 163 -6 60 7 101 31 101 7 0 24 -15 37 -34z
m-3731 -117 c50 -98 32 -215 -55 -353 l-52 -84 58 -6 c64 -8 119 -24 119 -35
0 -4 -31 -15 -70 -24 -95 -23 -149 -50 -203 -102 -83 -79 -121 -186 -120 -341
1 -190 102 -387 261 -509 63 -47 80 -72 58 -81 -44 -17 -270 175 -354 301
-108 160 -147 307 -139 515 7 179 8 183 61 175 l42 -7 1 87 c1 115 21 190 66
258 25 36 45 34 96 -10 l43 -37 29 35 c40 48 96 157 110 212 6 26 15 47 20 47
5 0 18 -18 29 -41z m3591 0 c3 -19 13 -51 22 -71 22 -52 105 -178 116 -178 5
0 30 18 56 40 25 21 51 37 59 34 44 -17 100 -204 94 -314 l-3 -55 42 3 c39 2
43 0 50 -25 5 -16 8 -104 8 -198 -1 -191 -9 -233 -75 -366 -59 -119 -130 -208
-240 -300 -60 -51 -150 -109 -169 -109 -27 0 -8 41 32 69 46 32 117 104 164
166 79 106 129 272 120 400 -18 229 -117 352 -327 402 -100 24 -92 36 38 57
l74 11 -21 27 c-41 52 -93 154 -108 212 -17 68 -11 130 19 194 23 50 40 50 49
1z m57 -565 c21 -14 22 -22 22 -139 0 -102 -4 -134 -21 -181 -39 -105 -137
-272 -217 -371 -26 -32 -41 -43 -63 -43 -42 0 -45 17 -10 63 108 144 208 322
229 409 7 26 12 99 12 162 0 124 4 131 48 100z m-3718 -119 c0 -99 4 -137 20
-182 28 -80 110 -224 186 -325 36 -49 62 -92 59 -98 -3 -5 -21 -10 -39 -10
-30 0 -39 8 -92 80 -69 95 -138 217 -178 315 -26 63 -29 82 -30 192 -1 111 1
124 19 137 11 9 28 16 38 16 15 0 17 -13 17 -125z m3151 -927 c8 -15 3 -25
-28 -54 -59 -56 -287 -242 -403 -330 -141 -107 -414 -294 -569 -389 -45 -27
-107 -66 -139 -86 -31 -19 -85 -50 -118 -69 l-61 -33 -119 68 c-125 71 -167
97 -404 253 -158 104 -398 277 -519 375 -122 98 -271 230 -271 240 0 15 20 47
30 47 5 0 74 -54 152 -121 240 -204 473 -373 803 -584 28 -17 75 -48 105 -67
59 -38 146 -89 195 -114 31 -16 31 -15 190 79 389 231 792 523 1055 765 67 62
78 64 101 20z"/>
<path d="M4550 5582 c-40 -15 -119 -17 -715 -17 -472 0 -683 3 -713 11 -50 14
-41 39 -81 -216 -29 -185 -27 -241 5 -164 44 105 160 251 227 285 48 25 165
39 325 39 l122 0 -1 -547 c0 -620 -8 -819 -33 -854 -26 -38 -91 -75 -155 -89
-34 -7 -61 -17 -61 -21 0 -5 160 -9 355 -9 350 0 408 6 313 30 -85 22 -105 31
-132 58 -39 42 -46 80 -46 251 l0 154 37 -74 c45 -91 132 -181 223 -231 36
-20 144 -62 240 -94 96 -31 178 -59 182 -61 4 -2 -13 -32 -39 -66 -25 -34 -65
-102 -89 -152 -63 -132 -85 -226 -91 -382 -4 -90 -9 -133 -17 -133 -36 0 -164
76 -223 133 -74 71 -168 205 -202 290 -14 34 -29 57 -39 57 -13 0 -14 -30 -8
-262 4 -145 10 -265 13 -268 3 -3 24 16 47 43 44 50 63 56 99 33 37 -24 167
-64 253 -77 l81 -12 12 -65 c55 -297 278 -534 576 -614 120 -31 358 -32 473 0
83 22 181 66 235 104 35 25 49 19 89 -37 17 -25 37 -45 43 -45 11 0 25 259 25
457 0 84 -21 85 -44 1 -39 -141 -136 -281 -254 -365 -90 -65 -166 -93 -262
-100 -251 -17 -464 135 -575 412 -23 58 -70 246 -62 250 1 1 38 7 82 13 176
26 305 90 403 197 93 101 124 184 124 329 -1 154 -50 268 -159 365 -30 27 -51
51 -46 54 54 33 214 47 303 26 122 -28 260 -132 345 -259 45 -68 97 -180 110
-239 4 -17 13 -31 21 -31 12 0 14 43 14 265 0 285 -3 298 -48 231 -12 -18 -33
-43 -46 -56 l-24 -22 -44 30 c-63 43 -113 66 -208 97 -112 36 -314 46 -437 21
l-81 -16 -256 85 c-271 89 -367 132 -441 198 -116 101 -138 285 -52 428 96
160 353 223 550 135 129 -58 254 -190 332 -354 22 -45 45 -82 52 -82 10 0 13
54 13 245 0 274 -2 280 -61 200 -19 -24 -38 -45 -43 -45 -4 0 -40 16 -80 35
-67 33 -167 62 -281 81 l-50 9 -34 213 c-18 116 -36 212 -40 211 -3 -1 -26 -8
-51 -17z m-255 -72 c109 -13 158 -39 219 -116 38 -49 136 -204 136 -216 0 -3
-46 -8 -102 -12 -283 -18 -483 -136 -564 -333 l-24 -58 0 373 0 372 123 0 c67
0 162 -5 212 -10z m632 -1614 c23 -20 54 -62 70 -94 24 -50 28 -68 28 -147 -1
-77 -5 -99 -29 -152 -46 -102 -167 -194 -283 -218 -32 -6 -33 -6 -34 29 -1 20
-2 51 -3 69 -6 160 57 419 134 545 19 31 21 32 48 18 15 -8 46 -31 69 -50z"/>
<path d="M4640 7713 c-38 -11 -60 -28 -65 -53 -8 -37 10 -78 40 -92 30 -13 32
-32 5 -51 -15 -11 -20 -27 -22 -88 l-3 -74 -35 -11 c-19 -6 -48 -14 -63 -18
l-29 -7 7 41 c5 32 3 46 -11 61 -24 27 -78 25 -98 -3 -22 -31 -20 -48 11 -80
14 -15 24 -30 21 -34 -4 -3 -25 -8 -49 -11 -39 -6 -42 -4 -34 13 18 45 17 65
-5 84 -44 38 -110 14 -110 -41 0 -22 8 -34 32 -49 l32 -19 -37 -16 c-37 -15
-87 -20 -87 -9 0 4 6 12 14 18 14 10 20 34 17 63 0 7 -15 20 -32 29 -27 13
-35 14 -56 3 -48 -26 -51 -75 -7 -104 13 -8 24 -19 24 -24 0 -10 -78 -31 -117
-31 -16 0 -33 -4 -38 -9 -6 -6 -29 -13 -53 -17 l-43 -7 6 39 c11 71 -48 106
-101 61 -25 -22 -27 -28 -19 -53 7 -18 21 -31 43 -38 32 -11 33 -12 15 -28
-47 -41 -83 -45 -83 -9 0 43 -82 70 -110 36 -30 -36 0 -108 40 -98 26 7 38
-23 18 -43 -13 -13 -18 -13 -44 1 -39 20 -77 19 -97 -3 -45 -49 4 -117 67 -94
45 16 46 16 46 -19 0 -26 -3 -30 -17 -23 -39 17 -75 10 -97 -19 -19 -26 -19
-30 -5 -55 18 -34 68 -41 106 -16 25 16 27 16 40 -2 19 -26 16 -54 -5 -54 -62
0 -83 -80 -29 -110 25 -14 30 -13 68 8 22 13 42 22 44 20 12 -13 35 -71 35
-86 0 -10 -11 -29 -25 -42 -28 -27 -33 -71 -9 -90 8 -8 32 -16 52 -19 33 -6
37 -10 50 -54 11 -39 17 -47 30 -42 35 14 253 46 417 61 291 27 736 17 925
-20 36 -7 81 -14 100 -15 19 -1 62 -7 95 -14 l60 -12 15 45 c13 40 19 46 49
50 47 7 78 48 61 81 -7 13 -22 30 -33 39 -18 15 -18 20 -7 52 7 20 21 46 31
59 l18 24 28 -28 c34 -31 73 -35 96 -9 37 41 7 102 -50 102 -28 0 -31 30 -7
55 15 15 18 15 35 -1 26 -24 69 -21 91 6 23 29 23 41 -4 75 -18 24 -26 26 -60
21 -34 -6 -38 -4 -38 15 0 19 4 20 39 14 32 -5 43 -3 60 14 34 34 27 77 -15
99 -17 9 -29 7 -60 -8 -33 -17 -40 -18 -53 -6 -18 19 -7 46 18 46 50 0 71 76
28 99 -40 21 -80 10 -97 -26 -17 -36 -35 -41 -68 -17 -29 20 -28 26 8 46 23
13 30 24 30 46 0 33 -13 47 -51 57 -39 10 -74 -24 -74 -72 0 -37 -1 -38 -35
-35 -33 3 -81 32 -52 32 20 0 52 39 52 63 0 31 -29 57 -63 57 -27 0 -67 -30
-67 -51 0 -15 21 -53 34 -61 6 -4 8 -10 4 -13 -8 -8 -118 16 -118 25 0 4 15
19 34 34 39 29 39 50 1 86 -24 23 -51 23 -84 1 -19 -12 -20 -80 -1 -91 28 -17
-1 -24 -48 -11 -25 6 -48 14 -51 16 -2 3 8 16 23 30 34 32 32 73 -5 94 -53 30
-111 -16 -90 -72 12 -32 2 -41 -39 -32 -36 8 -38 22 -6 56 l24 26 -19 32 c-15
25 -25 31 -52 31 -48 0 -71 -28 -62 -76 l6 -37 -42 7 c-74 12 -79 18 -79 95 0
60 -3 70 -26 90 l-26 23 36 30 c57 47 48 118 -19 136 -16 5 -37 7 -45 5z
m-212 -501 c9 -6 10 -21 2 -62 -11 -58 -2 -140 26 -222 9 -27 14 -55 11 -62
-5 -12 -217 -86 -245 -86 -5 0 -26 35 -46 77 -44 92 -55 170 -32 224 18 43 85
104 124 113 78 20 99 24 122 25 14 0 31 -3 38 -7z m610 -18 c58 -19 107 -58
123 -97 21 -49 16 -146 -9 -199 -11 -25 -24 -57 -28 -71 -12 -51 -25 -52 -150
-13 -65 19 -121 39 -126 44 -6 6 -2 36 10 78 28 95 34 164 22 220 -8 37 -8 49
2 56 16 11 99 2 156 -18z m-343 -24 c24 12 49 19 55 15 22 -14 53 -91 52 -131
0 -45 -13 -76 -45 -111 -18 -21 -22 -21 -48 -8 -36 19 -79 19 -105 0 -18 -12
-24 -12 -42 1 -68 47 -68 191 0 238 18 13 24 12 54 -6 l34 -20 45 22z m-759
-99 c44 -20 78 -60 111 -131 67 -144 66 -141 52 -155 -8 -7 -52 -29 -99 -50
-47 -20 -100 -43 -118 -51 -31 -14 -34 -13 -58 13 -13 15 -41 61 -62 102 -30
61 -37 86 -37 135 0 69 19 103 70 129 58 30 88 32 141 8z m1587 -8 c42 -21 67
-69 67 -131 0 -42 -8 -70 -37 -129 -21 -41 -49 -88 -63 -105 l-25 -30 -78 36
c-42 20 -81 36 -87 36 -17 0 -88 41 -93 54 -8 20 93 215 129 251 18 19 43 35
56 38 34 6 99 -4 131 -20z"/>
<path d="M3904 7315 c-10 -15 -14 -34 -10 -48 5 -23 42 -47 71 -47 21 0 55 41
55 65 0 54 -86 76 -116 30z"/>
<path d="M7085 2214 c-4 -16 -12 -42 -18 -59 -6 -16 -11 -77 -11 -135 0 -117
14 -158 73 -214 39 -37 54 -26 17 13 -60 63 -85 222 -55 361 6 28 8 54 5 57
-3 3 -8 -8 -11 -23z"/>
<path d="M2204 2207 c3 -15 8 -38 11 -53 3 -14 6 -68 6 -120 0 -80 -4 -103
-25 -149 -14 -30 -42 -71 -63 -90 -36 -34 -37 -35 -8 -21 48 24 92 77 110 133
20 60 16 186 -7 265 -15 52 -33 79 -24 35z"/>
<path d="M2793 2103 c5 -4 43 -13 85 -19 82 -12 219 -2 237 17 7 7 -9 8 -50 3
-78 -10 -168 -10 -230 0 -27 4 -46 4 -42 -1z"/>
<path d="M1915 2088 c-84 -29 -137 -126 -115 -209 29 -107 115 -160 225 -139
40 8 40 8 -15 9 -69 1 -116 25 -154 80 -58 81 -32 181 58 222 54 24 76 24 116
-3 44 -30 55 -63 31 -87 -10 -10 -25 -21 -32 -23 -8 -3 -11 -9 -7 -13 14 -15
57 14 63 42 4 15 11 38 16 51 8 19 4 28 -20 53 -26 25 -37 29 -83 28 -29 0
-66 -5 -83 -11z"/>
<path d="M7226 2079 c-29 -23 -32 -43 -15 -99 12 -38 46 -66 71 -58 8 3 0 11
-20 22 -28 15 -33 22 -30 48 7 74 115 98 186 41 78 -62 78 -155 2 -237 -38
-41 -39 -41 -109 -41 -78 0 -93 -9 -31 -19 66 -10 150 20 188 69 49 62 46 172
-6 229 -60 64 -182 88 -236 45z"/>
</g>
</svg>
